# xmcd
#
# Track frame offsets:
#	151
#	11922
#	31765
#	44971
#	62403
#	72925
#	86457
#	108738
#	136251
#
# Disc length: 2262 seconds
#
# Revision: 0
# Processed by: cddbd v1.5.2PL0 Copyright (c) Steve Scherf et al.
# Submitted via: EasyCDDAExtractor 11.5.3.1
#
DISCID=7a08d409
DTITLE=The Ansley Dunbar Retaliation - The Ansley Dunbar Retaliation/Dr. Dunba
DTITLE=r's Prescription
DYEAR=2006
DGENRE=Blues
TTITLE0=Watch 'n' Chain
TTITLE1=My Whiskey Head Woman
TTITLE2=Trouble No More
TTITLE3=Double Lovin'
TTITLE4=See See Baby
TTITLE5=Roamin' And Ramblin'
TTITLE6=Sage Of Sidney Street
TTITLE7=Memory Of Pain
TTITLE8=Mutiny
EXTD=
EXTT0=
EXTT1=
EXTT2=
EXTT3=
EXTT4=
EXTT5=
EXTT6=
EXTT7=
EXTT8=
PLAYORDER=
